<svg height="512" viewBox="0 0 64 64" width="512" xmlns="http://www.w3.org/2000/svg"><g id="research"><path d="m26 6a21 21 0 1 0 21 21 21.024 21.024 0 0 0 -21-21zm0 40a19 19 0 1 1 19-19 19.022 19.022 0 0 1 -19 19z"/><path d="m46.093 41.852a25.043 25.043 0 1 0 -4.123 4.363l14.906 14.9a2.994 2.994 0 1 0 4.238-4.229zm-43.093-14.852a23 23 0 1 1 23 23 23.025 23.025 0 0 1 -23-23zm56.7 32.708a.991.991 0 0 1 -1.4 0l-14.846-14.836q.717-.7 1.374-1.456l14.872 14.884a.971.971 0 0 1 .3.7.983.983 0 0 1 -.3.708z"/><path d="m16 34h4a1 1 0 0 0 1-1v-10a1 1 0 0 0 -1-1h-4a1 1 0 0 0 -1 1v10a1 1 0 0 0 1 1zm1-10h2v8h-2z"/><path d="m24 34h4a1 1 0 0 0 1-1v-12a1 1 0 0 0 -1-1h-4a1 1 0 0 0 -1 1v12a1 1 0 0 0 1 1zm1-12h2v10h-2z"/><path d="m36 18h-4a1 1 0 0 0 -1 1v14a1 1 0 0 0 1 1h4a1 1 0 0 0 1-1v-14a1 1 0 0 0 -1-1zm-1 14h-2v-12h2z"/><path d="m48.414 6h2.586v-2h-3a1 1 0 0 0 -.707.293l-3 3 1.414 1.414z"/><path d="m53 4h9v2h-9z"/><path d="m53 8h2v2h-2z"/><path d="m57 8h5v2h-5z"/><path d="m53 12h9v2h-9z"/><path d="m15.586 58h-2.586v2h3a1 1 0 0 0 .707-.293l3-3-1.414-1.414z"/><path d="m2 58h9v2h-9z"/><path d="m9 54h2v2h-2z"/><path d="m2 54h5v2h-5z"/><path d="m2 50h9v2h-9z"/><path d="m15 36h22v2h-22z"/></g></svg>